<svg xmlns="http://www.w3.org/2000/svg" viewBox="0 0 128 128" height="128" width="128">
  
  <rect fill="#4A90E2" height="128" width="128"></rect>

  
  <ellipse fill="#F9C07F" ry="38" rx="42" cy="60" cx="64"></ellipse>

  
  <ellipse fill="#2F2F2F" ry="22" rx="26" cy="78" cx="64"></ellipse>

  
  <circle fill="#000000" r="11" cy="78" cx="64"></circle>

  
  <rect fill="white" rx="2" height="18" width="10" y="88" x="54"></rect>
  <rect fill="white" rx="2" height="18" width="10" y="88" x="64"></rect>

  
  <circle fill="white" r="11" cy="52" cx="52"></circle>
  <circle fill="white" r="11" cy="52" cx="76"></circle>
  <circle fill="black" r="5" cy="50" cx="55"></circle>
  <circle fill="black" r="5" cy="50" cx="79"></circle>

  
  <ellipse transform="rotate(-25 38 28)" fill="#8B4513" ry="28" rx="22" cy="28" cx="38"></ellipse>
  <ellipse transform="rotate(25 90 28)" fill="#8B4513" ry="28" rx="22" cy="28" cx="90"></ellipse>
  
  <ellipse transform="rotate(-25 40 32)" fill="#D2A679" ry="18" rx="14" cy="32" cx="40"></ellipse>
  <ellipse transform="rotate(25 88 32)" fill="#D2A679" ry="18" rx="14" cy="32" cx="88"></ellipse>

  
  <path fill="#C41E3A" d="M 44 98 Q 64 110 84 98 L 84 106 Q 64 118 44 106 Z"></path>
  
  <circle fill="#F4C430" r="8" cy="102" cx="64"></circle>
  <circle fill="#DAA520" r="4" cy="102" cx="64"></circle>

  
  <path stroke-linecap="round" stroke-width="5" stroke="#000" fill="none" d="M 48 92 Q 64 108 80 92"></path>

  
  <line stroke-width="3" stroke="#000" y2="82" x2="40" y1="84" x1="48"></line>
  <line stroke-width="3" stroke="#000" y2="88" x2="38" y1="88" x1="46"></line>
  <line stroke-width="3" stroke="#000" y2="96" x2="40" y1="92" x1="48"></line>

  <line stroke-width="3" stroke="#000" y2="82" x2="88" y1="84" x1="80"></line>
  <line stroke-width="3" stroke="#000" y2="88" x2="90" y1="88" x1="82"></line>
  <line stroke-width="3" stroke="#000" y2="96" x2="88" y1="92" x1="80"></line>
</svg>
